<?xml version="1.0" standalone="no"?>
<!DOCTYPE svg PUBLIC "-//W3C//DTD SVG 20010904//EN"
 "http://www.w3.org/TR/2001/REC-SVG-20010904/DTD/svg10.dtd">
<svg version="1.0" xmlns="http://www.w3.org/2000/svg"
 width="400.000000pt" height="400.000000pt" viewBox="0 0 400.000000 400.000000"
 preserveAspectRatio="xMidYMid meet">

<g transform="translate(0.000000,400.000000) scale(0.100000,-0.100000)"
fill="#000000" stroke="none">
<path d="M1760 3375 c-132 -24 -252 -64 -377 -125 -591 -289 -898 -953 -737
-1595 133 -529 567 -933 1108 -1032 127 -23 370 -23 496 2 429 82 787 346 984
725 110 211 157 407 157 652 -1 219 -40 404 -127 588 -200 422 -608 727 -1059
789 -104 15 -354 12 -445 -4z m418 -171 c512 -76 908 -451 1018 -966 25 -116
25 -362 1 -478 -54 -253 -170 -464 -354 -641 -102 -99 -185 -156 -313 -218
-194 -93 -363 -127 -590 -118 -544 22 -1002 402 -1130 937 -31 131 -38 339
-16 475 73 439 378 805 796 953 193 68 386 86 588 56z"/>
<path d="M1500 2271 l0 -261 -145 -251 c-80 -138 -147 -256 -148 -261 -1 -5
116 -10 290 -11 171 -1 293 2 293 7 0 5 -63 118 -140 252 -77 134 -140 245
-140 248 0 4 115 6 255 6 l255 0 0 -254 c0 -234 1 -254 18 -257 9 -2 126 -3
260 -1 l242 3 0 254 0 253 52 11 c62 14 106 40 147 87 44 50 61 97 61 171 0
106 -45 185 -133 230 -70 36 -170 38 -239 4 -127 -61 -183 -224 -120 -348 24
-46 90 -109 136 -129 27 -12 5 -13 -196 -14 l-228 0 0 38 c0 74 -33 166 -91
252 -86 128 -211 202 -376 225 l-53 7 0 -261z"/>
</g>
</svg>
